<?xml version="1.0" standalone="no"?>
<!DOCTYPE svg PUBLIC "-//W3C//DTD SVG 20010904//EN"
 "http://www.w3.org/TR/2001/REC-SVG-20010904/DTD/svg10.dtd">
<svg version="1.0" xmlns="http://www.w3.org/2000/svg"
 width="512.000000pt" height="512.000000pt" viewBox="0 0 512.000000 512.000000"
 preserveAspectRatio="xMidYMid meet">
<metadata>
Created by potrace 1.11, written by Peter Selinger 2001-2013
</metadata>
<g transform="translate(0.000000,512.000000) scale(0.100000,-0.100000)"
fill="#000000" stroke="none">
<path d="M0 3932 l0 -1187 1179 0 c1115 0 1180 1 1185 17 2 10 0 20 -4 23 -5
3 -5 16 -1 28 5 12 5 34 1 49 -5 14 -5 29 -2 32 8 9 9 76 0 76 -3 0 -3 13 2
30 5 18 5 32 -1 36 -5 3 -6 11 -2 17 9 15 10 77 1 77 -4 0 -5 7 -2 15 9 23 10
116 2 121 -5 3 -6 10 -2 15 9 15 9 132 0 147 -4 6 -4 17 0 24 10 16 12 78 2
78 -4 0 -5 7 -2 15 9 23 10 116 2 121 -5 3 -5 10 -1 17 9 15 10 57 1 63 -4 3
-3 15 1 27 5 12 5 34 1 49 -5 14 -5 29 -2 32 8 9 9 76 0 76 -3 0 -3 13 2 30 5
18 5 32 -1 36 -5 3 -6 11 -2 17 9 15 10 77 1 77 -4 0 -5 7 -2 15 9 23 10 116
2 121 -5 3 -6 10 -2 15 9 15 9 132 0 147 -4 6 -4 17 0 24 10 16 12 78 2 78 -4
0 -5 7 -2 15 9 23 10 116 2 121 -5 3 -5 10 -1 17 9 15 10 57 1 63 -4 3 -3 15
1 27 5 12 5 34 1 49 -5 14 -5 29 -2 32 8 9 9 76 0 76 -3 0 -3 13 2 30 5 18 5
32 -1 36 -5 3 -6 11 -2 17 9 15 11 77 1 77 -3 0 -3 13 2 29 4 16 6 32 2 35 -3
3 -536 6 -1184 6 l-1178 0 0 -1188z"/>
<path d="M2759 5118 c-5 -17 -3 -61 3 -64 5 -3 6 -10 2 -15 -9 -15 -9 -132 0
-147 4 -6 4 -17 0 -24 -10 -16 -12 -78 -2 -78 4 0 5 -7 2 -15 -9 -23 -10 -116
-2 -121 5 -3 5 -10 1 -17 -9 -15 -10 -57 -1 -63 4 -3 3 -15 -1 -27 -5 -12 -5
-34 -1 -49 5 -14 5 -29 2 -32 -8 -9 -9 -76 0 -76 3 0 3 -13 -2 -30 -5 -18 -5
-32 1 -36 5 -3 6 -11 2 -17 -9 -15 -10 -77 -1 -77 4 0 5 -7 2 -15 -9 -23 -10
-116 -2 -121 5 -3 6 -10 2 -15 -9 -15 -9 -132 0 -147 4 -6 4 -17 0 -24 -10
-16 -12 -78 -2 -78 4 0 5 -7 2 -15 -9 -23 -10 -116 -2 -121 5 -3 5 -10 1 -17
-9 -15 -10 -57 -1 -63 4 -3 3 -15 -1 -27 -5 -12 -5 -34 -1 -49 5 -14 5 -29 2
-32 -8 -9 -9 -76 0 -76 3 0 3 -13 -2 -30 -5 -18 -5 -32 1 -36 5 -3 6 -11 2
-17 -9 -15 -10 -77 -1 -77 4 0 5 -7 2 -15 -9 -23 -10 -116 -2 -121 5 -3 6 -10
2 -15 -9 -15 -9 -132 0 -147 4 -6 4 -17 0 -24 -10 -16 -12 -78 -2 -78 3 0 3
-12 -1 -27 -8 -31 -6 -82 4 -92 4 -3 535 -6 1181 -6 l1174 0 0 1187 0 1188
-1180 0 c-649 0 -1180 -1 -1181 -2z"/>
<path d="M0 1183 l0 -1183 1174 0 c914 0 1176 3 1182 12 10 16 12 78 2 78 -3
0 -3 13 2 30 5 18 5 32 -1 36 -5 3 -6 11 -2 17 9 15 10 77 1 77 -4 0 -5 7 -2
15 9 23 10 116 2 121 -5 3 -6 10 -2 15 9 15 9 132 0 147 -4 6 -4 17 0 24 10
16 12 78 2 78 -4 0 -5 7 -2 15 9 23 10 116 2 121 -5 3 -5 10 -1 17 9 15 10 57
1 63 -4 3 -3 15 1 27 5 12 5 34 1 49 -5 14 -5 29 -2 32 8 9 9 76 0 76 -3 0 -3
13 2 30 5 18 5 32 -1 36 -5 3 -6 11 -2 17 9 15 10 77 1 77 -4 0 -5 7 -2 15 9
23 10 116 2 121 -5 3 -6 10 -2 15 9 15 9 132 0 147 -4 6 -4 17 0 24 10 16 12
78 2 78 -4 0 -5 7 -2 15 9 23 10 116 2 121 -5 3 -5 10 -1 17 9 15 10 57 1 63
-4 3 -3 15 1 27 5 12 5 34 1 49 -5 14 -5 29 -2 32 8 9 9 76 0 76 -3 0 -3 13 2
30 5 18 5 32 -1 36 -5 3 -6 11 -2 17 10 16 10 77 0 77 -4 0 -5 5 -2 10 10 16
12 111 3 116 -4 3 -4 13 1 23 26 48 74 46 -1184 46 l-1175 0 0 -1182z"/>
<path d="M2761 2362 c-6 -2 -7 -12 -1 -27 5 -12 6 -26 2 -29 -9 -9 -9 -76 0
-76 4 0 5 -7 2 -15 -9 -23 -10 -116 -2 -121 5 -3 5 -10 1 -17 -9 -15 -10 -57
-1 -63 4 -3 3 -15 -1 -27 -5 -12 -5 -34 -1 -49 5 -14 5 -29 2 -32 -8 -9 -9
-76 0 -76 3 0 3 -13 -2 -30 -5 -18 -5 -32 1 -36 5 -3 6 -11 2 -17 -9 -15 -10
-77 -1 -77 4 0 5 -7 2 -15 -9 -23 -10 -116 -2 -121 5 -3 6 -10 2 -15 -9 -15
-9 -132 0 -147 4 -6 4 -17 0 -24 -10 -16 -12 -78 -2 -78 4 0 5 -7 2 -15 -9
-23 -10 -116 -2 -121 5 -3 5 -10 1 -17 -9 -15 -10 -57 -1 -63 4 -3 3 -15 -1
-27 -5 -12 -5 -34 -1 -49 5 -14 5 -29 2 -32 -8 -9 -9 -76 0 -76 3 0 3 -13 -2
-30 -5 -18 -5 -32 1 -36 5 -3 6 -11 2 -17 -9 -15 -10 -77 -1 -77 4 0 5 -7 2
-15 -9 -23 -10 -116 -2 -121 5 -3 6 -10 2 -15 -9 -15 -9 -132 0 -147 4 -6 4
-17 0 -24 -10 -16 -12 -78 -2 -78 4 0 5 -7 2 -15 -9 -23 -10 -116 -2 -121 5
-3 5 -10 1 -17 -9 -15 -10 -57 -1 -63 4 -3 4 -14 -1 -26 -4 -12 -6 -32 -3 -45
l4 -23 1179 0 1179 0 0 1183 0 1182 -1175 0 c-646 0 -1179 -1 -1184 -3z"/>
</g>
</svg>
